<svg width="640" height="400" viewBox="0 0 640 400" xmlns="http://www.w3.org/2000/svg" role="img" aria-labelledby="title desc">
  <title id="title">Churn Early Warning dashboard preview</title>
  <desc id="desc">Dashboard mock-up with cards and a highlighted anomaly line chart for churn detection.</desc>
  <defs>
    <linearGradient id="bg" x1="0" y1="0" x2="1" y2="1">
      <stop offset="0%" stop-color="#f97316"/>
      <stop offset="100%" stop-color="#ef4444"/>
    </linearGradient>
  </defs>
  <rect width="640" height="400" rx="24" fill="url(#bg)"/>
  <g transform="translate(48 48)">
    <rect x="0" y="0" width="544" height="304" rx="24" fill="rgba(15,23,42,0.45)" stroke="rgba(248,250,252,0.2)"/>
    <g transform="translate(40 40)">
      <rect x="0" y="0" width="160" height="84" rx="16" fill="rgba(248,250,252,0.12)"/>
      <rect x="176" y="0" width="160" height="84" rx="16" fill="rgba(248,250,252,0.12)"/>
      <rect x="352" y="0" width="112" height="84" rx="16" fill="rgba(248,250,252,0.12)"/>
      <path d="M0 160C48 132 96 148 144 128C192 108 240 60 288 88C336 116 384 212 432 196C480 180 528 92 576 140" stroke="#f8fafc" stroke-width="10" stroke-linecap="round" fill="none"/>
      <circle cx="288" cy="88" r="12" fill="#f97316" stroke="#f8fafc" stroke-width="4"/>
      <text x="16" y="60" fill="#f8fafc" font-size="18" font-family="'Fira Code', monospace">At-risk MRR: $48k</text>
      <text x="16" y="212" fill="#fed7aa" font-size="18" font-family="'Fira Code', monospace">Alert: Segment SaaS Mid</text>
    </g>
  </g>
</svg>
