<svg width="640" height="400" viewBox="0 0 640 400" xmlns="http://www.w3.org/2000/svg" role="img" aria-labelledby="title desc">
  <title id="title">Retail Footfall dashboard preview</title>
  <desc id="desc">Gradient card with heatmap tiles and conversion trend line for a retail analytics dashboard.</desc>
  <defs>
    <linearGradient id="bg" x1="0" y1="0" x2="1" y2="1">
      <stop offset="0%" stop-color="#22d3ee"/>
      <stop offset="100%" stop-color="#a855f7"/>
    </linearGradient>
    <linearGradient id="tiles" x1="0" y1="1" x2="0" y2="0">
      <stop offset="0%" stop-color="rgba(15,23,42,0.65)"/>
      <stop offset="100%" stop-color="rgba(255,255,255,0.65)"/>
    </linearGradient>
  </defs>
  <rect width="640" height="400" rx="24" fill="url(#bg)"/>
  <g transform="translate(40 44)">
    <rect x="0" y="0" width="560" height="312" rx="24" fill="rgba(15,23,42,0.45)" stroke="rgba(248,250,252,0.28)"/>
    <g transform="translate(48 52)">
      <g fill="url(#tiles)">
        <rect x="0" y="0" width="72" height="72" rx="12"/>
        <rect x="88" y="0" width="72" height="72" rx="12"/>
        <rect x="176" y="0" width="72" height="72" rx="12"/>
        <rect x="264" y="0" width="72" height="72" rx="12"/>
      </g>
      <g fill="url(#tiles)" opacity="0.8" transform="translate(0 88)">
        <rect x="0" y="0" width="72" height="72" rx="12"/>
        <rect x="88" y="0" width="72" height="72" rx="12"/>
        <rect x="176" y="0" width="72" height="72" rx="12"/>
        <rect x="264" y="0" width="72" height="72" rx="12"/>
      </g>
    </g>
    <path d="M88 268C136 232 184 212 232 228C280 244 328 224 376 204C424 184 472 192 520 220" stroke="#f8fafc" stroke-width="10" stroke-linecap="round" fill="none" opacity="0.85"/>
    <text x="88" y="264" fill="#f1f5f9" font-size="18" font-family="'Fira Code', monospace">Conversion +6.3% vs LY</text>
  </g>
</svg>
