<svg width="640" height="400" viewBox="0 0 640 400" xmlns="http://www.w3.org/2000/svg" role="img" aria-labelledby="title desc">
  <title id="title">Revenue Intelligence Dashboard preview</title>
  <desc id="desc">Gradient background with simplified column and line chart representing revenue insights.</desc>
  <defs>
    <linearGradient id="bg" x1="0" y1="0" x2="1" y2="1">
      <stop offset="0%" stop-color="#0ea5e9"/>
      <stop offset="100%" stop-color="#6366f1"/>
    </linearGradient>
    <linearGradient id="bars" x1="0" y1="1" x2="0" y2="0">
      <stop offset="0%" stop-color="rgba(255,255,255,0.25)"/>
      <stop offset="100%" stop-color="#f8fafc"/>
    </linearGradient>
  </defs>
  <rect width="640" height="400" rx="24" fill="url(#bg)"/>
  <g transform="translate(48 48)">
    <rect x="0" y="0" width="544" height="304" rx="20" fill="rgba(15,23,42,0.4)" stroke="rgba(248,250,252,0.25)"/>
    <g transform="translate(48 44)">
      <rect width="36" height="140" x="0" y="92" rx="8" fill="url(#bars)"/>
      <rect width="36" height="180" x="64" y="52" rx="8" fill="url(#bars)"/>
      <rect width="36" height="112" x="128" y="120" rx="8" fill="url(#bars)"/>
      <rect width="36" height="216" x="192" y="16" rx="8" fill="url(#bars)"/>
      <rect width="36" height="164" x="256" y="68" rx="8" fill="url(#bars)"/>
      <rect width="36" height="132" x="320" y="100" rx="8" fill="url(#bars)"/>
    </g>
    <polyline points="48,216 112,156 176,192 240,136 304,168 368,120" fill="none" stroke="#f8fafc" stroke-width="8" stroke-linecap="round" stroke-linejoin="round" opacity="0.85"/>
    <circle cx="48" cy="216" r="8" fill="#f8fafc"/>
    <circle cx="112" cy="156" r="8" fill="#f8fafc"/>
    <circle cx="176" cy="192" r="8" fill="#f8fafc"/>
    <circle cx="240" cy="136" r="8" fill="#f8fafc"/>
    <circle cx="304" cy="168" r="8" fill="#f8fafc"/>
    <circle cx="368" cy="120" r="8" fill="#f8fafc"/>
    <text x="48" y="276" fill="#cbd5f5" font-family="'Fira Code', monospace" font-size="18">ARR growth +18%</text>
  </g>
</svg>
